<svg xmlns="http://www.w3.org/2000/svg" xmlns:xlink="http://www.w3.org/1999/xlink" width="1080" zoomAndPan="magnify" viewBox="0 0 810 1012.49997" height="1350" preserveAspectRatio="xMidYMid meet" version="1.0"><defs><clipPath id="f8bea34b5d"><path d="M 0.199219 0 L 809.800781 0 L 809.800781 1012 L 0.199219 1012 Z M 0.199219 0 " clip-rule="nonzero"/></clipPath><clipPath id="659c9c90b8"><path d="M 64 264.125 L 770 264.125 L 770 747.636719 L 64 747.636719 Z M 64 264.125 " clip-rule="nonzero"/></clipPath></defs><g clip-path="url(#f8bea34b5d)"><path fill="#ffffff" d="M 0.199219 0 L 809.800781 0 L 809.800781 1012 L 0.199219 1012 Z M 0.199219 0 " fill-opacity="1" fill-rule="nonzero"/><path fill="#ffffff" d="M 0.199219 0 L 809.800781 0 L 809.800781 1012 L 0.199219 1012 Z M 0.199219 0 " fill-opacity="1" fill-rule="nonzero"/></g><g clip-path="url(#659c9c90b8)"><path fill="#12b981" d="M 761.46875 291.972656 C 751.351562 274.539062 733.28125 264.136719 713.125 264.136719 L 562.089844 264.136719 C 541.328125 264.136719 522.023438 275.347656 511.710938 293.371094 L 379.140625 525.394531 L 320.394531 422.5625 C 308.636719 401.984375 287.460938 389.691406 263.761719 389.691406 C 240.0625 389.691406 218.886719 401.984375 207.128906 422.5625 L 72.21875 658.664062 C 61.554688 677.328125 61.628906 699.582031 72.414062 718.171875 C 83.214844 736.757812 102.488281 747.863281 123.996094 747.863281 L 270.394531 747.863281 C 290.746094 747.863281 309.671875 736.878906 319.769531 719.203125 L 379.140625 615.308594 L 435.074219 713.195312 C 447.289062 734.582031 470.183594 747.863281 494.808594 747.863281 L 495.113281 747.863281 C 518.523438 747.863281 540.277344 735.238281 551.882812 714.914062 L 761.652344 347.753906 C 771.644531 330.261719 771.582031 309.40625 761.46875 291.972656 Z M 721.003906 329 L 510.980469 696.601562 C 508.164062 701.527344 502.886719 704.601562 497.199219 704.601562 L 490.808594 704.601562 C 485.089844 704.601562 479.765625 701.515625 476.921875 696.539062 L 404.832031 570.359375 L 555.0625 307.414062 L 708.472656 307.414062 C 713.671875 307.414062 718.34375 310.105469 720.960938 314.609375 C 723.578125 319.09375 723.589844 324.480469 721.003906 329 Z M 353.449219 570.34375 L 276.753906 704.585938 L 127.558594 704.585938 C 121.246094 704.585938 115.570312 701.316406 112.390625 695.855469 C 109.210938 690.394531 109.195312 683.851562 112.332031 678.363281 L 247.316406 442.109375 C 250.726562 436.132812 256.871094 432.574219 263.761719 432.574219 C 270.636719 432.574219 276.78125 436.132812 280.207031 442.109375 Z M 353.449219 570.34375 " fill-opacity="1" fill-rule="nonzero"/></g></svg>